<svg width="23" height="13" viewBox="0 0 23 13" fill="none" xmlns="http://www.w3.org/2000/svg">
<path d="M0 0V12.75H22.5V0H0ZM12 9.75H4.5C4.30109 9.75 4.11032 9.67098 3.96967 9.53033C3.82902 9.38968 3.75 9.19891 3.75 9C3.75 8.80109 3.82902 8.61032 3.96967 8.46967C4.11032 8.32902 4.30109 8.25 4.5 8.25H12C12.1989 8.25 12.3897 8.32902 12.5303 8.46967C12.671 8.61032 12.75 8.80109 12.75 9C12.75 9.19891 12.671 9.38968 12.5303 9.53033C12.3897 9.67098 12.1989 9.75 12 9.75ZM18 6.75H4.5C4.30109 6.75 4.11032 6.67098 3.96967 6.53033C3.82902 6.38968 3.75 6.19891 3.75 6C3.75 5.80109 3.82902 5.61032 3.96967 5.46967C4.11032 5.32902 4.30109 5.25 4.5 5.25H18C18.1989 5.25 18.3897 5.32902 18.5303 5.46967C18.671 5.61032 18.75 5.80109 18.75 6C18.75 6.19891 18.671 6.38968 18.5303 6.53033C18.3897 6.67098 18.1989 6.75 18 6.75ZM18 3.75H4.5C4.30109 3.75 4.11032 3.67098 3.96967 3.53033C3.82902 3.38968 3.75 3.19891 3.75 3C3.75 2.80109 3.82902 2.61032 3.96967 2.46967C4.11032 2.32902 4.30109 2.25 4.5 2.25H18C18.1989 2.25 18.3897 2.32902 18.5303 2.46967C18.671 2.61032 18.75 2.80109 18.75 3C18.75 3.19891 18.671 3.38968 18.5303 3.53033C18.3897 3.67098 18.1989 3.75 18 3.75Z" fill="#FFB900"/>
</svg>
